<svg xmlns="http://www.w3.org/2000/svg" width="260.875" height="35.059"><path fill="#1c1c1d" d="M52.313 0h208.563v35H52.313z"/><path fill="#b0aeaf" d="M0 .029h184.333v35H0z"/><path d="M203.742 13.588h2.28V22H203.9l-3.564-4.68V22h-2.292v-8.412h2.136l3.564 4.692zm11.477 2.226a2.168 2.168 0 00-1.062-.306 1.871 1.871 0 00-1.02.288 2.014 2.014 0 00-.72.8 2.621 2.621 0 000 2.292 2.057 2.057 0 00.72.8 1.839 1.839 0 001.02.294 2.371 2.371 0 001.026-.264 3.351 3.351 0 00.978-.72l1.44 1.536a5.109 5.109 0 01-1.65 1.188 4.591 4.591 0 01-4.188-.126 4.125 4.125 0 01-1.59-1.578 4.461 4.461 0 01-.576-2.255 4.254 4.254 0 01.588-2.214 4.178 4.178 0 011.62-1.549 4.838 4.838 0 014.212-.156 4.631 4.631 0 011.584 1.092l-1.44 1.716a3.017 3.017 0 00-.942-.838zm5.694 1.734h3.276v1.512h-3.276zm11.82-1.92a4.26 4.26 0 00-1.32-.276.9.9 0 00-.51.126.414.414 0 00-.186.366.573.573 0 00.36.522 6.372 6.372 0 001.14.4 11.024 11.024 0 011.464.51 2.7 2.7 0 011 .786 2.151 2.151 0 01.426 1.392 2.369 2.369 0 01-.462 1.481 2.769 2.769 0 01-1.248.906 4.892 4.892 0 01-1.758.3 6.744 6.744 0 01-2.166-.366 6.019 6.019 0 01-1.878-1l.936-1.9a5.6 5.6 0 001.554.93 4.277 4.277 0 001.578.378 1.121 1.121 0 00.636-.155.508.508 0 00.228-.444.581.581 0 00-.372-.534 6.335 6.335 0 00-1.152-.39 10.531 10.531 0 01-1.452-.474 2.575 2.575 0 01-1-.762 2.081 2.081 0 01-.42-1.356 2.386 2.386 0 01.432-1.422 2.724 2.724 0 011.218-.93 4.77 4.77 0 011.83-.324 6.76 6.76 0 011.884.27 6.245 6.245 0 011.632.714l-.924 1.92a8.056 8.056 0 00-1.47-.668zM244.805 22l-.492-1.345h-3.4l-.5 1.345h-2.568l3.588-8.412H244L247.469 22zm-3.192-3.168h2.04l-1.008-2.748zm-221.236.391a3.08 3.08 0 01-1.008 2.13 3.436 3.436 0 01-2.338.765 3.327 3.327 0 01-1.8-.483 3.173 3.173 0 01-1.2-1.374 4.958 4.958 0 01-.439-2.068v-.8a4.994 4.994 0 01.428-2.127 3.224 3.224 0 011.228-1.418 3.424 3.424 0 011.849-.5 3.3 3.3 0 012.273.765 3.2 3.2 0 011 2.165H18.9a2.107 2.107 0 00-.536-1.327 1.772 1.772 0 00-1.263-.407 1.731 1.731 0 00-1.485.707 3.534 3.534 0 00-.53 2.074v.756a3.746 3.746 0 00.5 2.111 1.642 1.642 0 001.45.728 1.917 1.917 0 001.313-.393 2.047 2.047 0 00.557-1.307zm7.099-.504h-1.652V22h-1.483v-8.531h3a3.489 3.489 0 012.279.663 2.344 2.344 0 01.8 1.917 2.4 2.4 0 01-.413 1.434 2.623 2.623 0 01-1.151.889l1.916 3.553V22h-1.585zm-1.652-1.2h1.523a1.694 1.694 0 001.172-.378 1.318 1.318 0 00.422-1.034 1.4 1.4 0 00-.39-1.061 1.655 1.655 0 00-1.163-.387h-1.564zm13.632.672h-3.5V20.8h4.1V22h-5.587v-8.531h5.537v1.2h-4.054v2.351h3.5zm9.214 1.823h-3.3L44.674 22h-1.541l3.223-8.531h1.33L50.914 22h-1.547zm-2.889-1.2h2.473l-1.236-3.539zm14.201-4.15h-2.66V22h-1.471v-7.336h-2.637v-1.2h6.768zM65.306 22h-1.477v-8.531h1.477zm7.467-1.857l2.168-6.674h1.629L73.5 22h-1.436l-3.059-8.531h1.623zm12.385-1.952h-3.5V20.8h4.1V22h-5.587v-8.531h5.537v1.2h-4.054v2.351h3.5zm16.576 1.032a3.08 3.08 0 01-1.008 2.13 3.436 3.436 0 01-2.338.765 3.327 3.327 0 01-1.8-.483 3.173 3.173 0 01-1.2-1.374 4.958 4.958 0 01-.439-2.068v-.8a4.994 4.994 0 01.428-2.127 3.224 3.224 0 011.233-1.416 3.424 3.424 0 011.849-.5 3.3 3.3 0 012.273.765 3.2 3.2 0 011 2.165h-1.477a2.107 2.107 0 00-.536-1.327 1.772 1.772 0 00-1.263-.407 1.731 1.731 0 00-1.485.707 3.534 3.534 0 00-.53 2.074v.756a3.746 3.746 0 00.5 2.111 1.642 1.642 0 001.45.728 1.917 1.917 0 001.313-.393 2.047 2.047 0 00.557-1.307zm10.774-1.266a5.234 5.234 0 01-.434 2.2 3.278 3.278 0 01-1.239 1.453 3.635 3.635 0 01-3.7 0 3.329 3.329 0 01-1.254-1.444A5.07 5.07 0 01105.43 18v-.48a5.189 5.189 0 01.442-2.2 3.325 3.325 0 011.248-1.462 3.643 3.643 0 013.7-.006 3.283 3.283 0 011.245 1.441 5.178 5.178 0 01.445 2.188zm-1.482-.445a3.729 3.729 0 00-.536-2.174 1.892 1.892 0 00-3.023 0 3.657 3.657 0 00-.554 2.13v.492a3.7 3.7 0 00.548 2.174 1.764 1.764 0 001.521.768 1.743 1.743 0 001.515-.75 3.781 3.781 0 00.53-2.191zm7.52-4.043l2.461 6.539 2.455-6.539h1.916V22H123.9v-2.812l.146-3.762L121.528 22h-1.061l-2.514-6.568.146 3.756V22h-1.477v-8.531zm13.145 0l2.461 6.539 2.455-6.539h1.916V22h-1.477v-2.812l.146-3.762L134.674 22h-1.061l-2.513-6.568.146 3.756V22h-1.476v-8.531zm18.034 4.488a5.234 5.234 0 01-.434 2.2 3.278 3.278 0 01-1.239 1.453 3.635 3.635 0 01-3.7 0 3.329 3.329 0 01-1.254-1.444 5.07 5.07 0 01-.452-2.166v-.48a5.189 5.189 0 01.442-2.2 3.325 3.325 0 011.248-1.462 3.643 3.643 0 013.7-.006 3.283 3.283 0 011.245 1.441 5.178 5.178 0 01.445 2.188zm-1.482-.445a3.729 3.729 0 00-.536-2.174 1.892 1.892 0 00-3.023 0 3.657 3.657 0 00-.554 2.13v.492a3.7 3.7 0 00.548 2.174 1.764 1.764 0 001.521.768 1.743 1.743 0 001.515-.75 3.781 3.781 0 00.53-2.191zM160.608 22h-1.482l-3.8-6.053V22h-1.482v-8.531h1.482l3.814 6.076v-6.076h1.471zm8.851-2.2a1.03 1.03 0 00-.4-.867 4.759 4.759 0 00-1.427-.615 6.89 6.89 0 01-1.632-.689 2.189 2.189 0 01-1.166-1.91 2.079 2.079 0 01.841-1.7 3.4 3.4 0 012.183-.668 3.687 3.687 0 011.588.328 2.606 2.606 0 011.1.935 2.4 2.4 0 01.4 1.345h-1.477a1.321 1.321 0 00-.419-1.037 1.738 1.738 0 00-1.2-.375 1.812 1.812 0 00-1.128.309 1.029 1.029 0 00-.4.864.931.931 0 00.434.779 5.006 5.006 0 001.43.606 6.54 6.54 0 011.6.673 2.544 2.544 0 01.885.867 2.258 2.258 0 01.281 1.146 2.03 2.03 0 01-.817 1.7 3.545 3.545 0 01-2.218.63 4.168 4.168 0 01-1.7-.343 2.859 2.859 0 01-1.217-.95 2.358 2.358 0 01-.431-1.406h1.482a1.38 1.38 0 00.48 1.125 2.1 2.1 0 001.377.4 1.828 1.828 0 001.163-.313 1.011 1.011 0 00.388-.834z" fill="#fff"/></svg>