<svg width="246" height="35" xmlns="http://www.w3.org/2000/svg"><path fill="#5d9741" d="M121 0h125v35H121z"/><path fill="#c1d72f" d="M0 0h123v35H0z"/><path d="M217.47 4.215c-.226.242-.632.599-.686 1.628-.066 1.262 1.387 1.24.653 3.221.364-.269.912-.96.812-1.782-.128-1.054-1.085-1.096-.779-3.068zm1.612 2.324c.201 2.03-2.02 3.453-2.3 4.687-.128.56-.49.843.274 2.092-.306-1.971 2.227-3.367 2.355-4.422.1-.821.095-1.202-.33-2.357zm-1.653 7.04a9.813 3.183 0 00-9.788 3.183 9.813 3.183 0 00.005.103c.309 6.612 5.025 9.827 9.736 9.827 4.594 0 8.882-3.044 9.795-9.173.06 0 2.482-.026 2.585.007-.004.567-.044 1.158-.687 2.192-.852 1.37-2.426 1.905-3.125 2.3.493.112 1.937-.421 1.937-.421s.783-.203 2.023-1.41c1.14-1.11 1.428-3.234 1.288-3.577-.076-.189-.392-.228-.392-.228l-3.611-.003a9.813 3.183 0 00-9.741-2.8 9.813 3.183 0 00-.026 0zm.03.21a9.02 2.659 0 01.003 0 9.02 2.659 0 01.023 0 9.02 2.659 0 019.02 2.659 9.02 2.659 0 01-1.683 1.547 7.484 1.871 0 00.092-.293 7.484 1.871 0 00-7.483-1.872 7.484 1.871 0 00-.028 0 7.484 1.871 0 00-7.456 1.872 7.484 1.871 0 00.058.232 9.02 2.659 0 01-1.54-1.486 9.02 2.659 0 018.994-2.66zm-1.116 2.563h.238c-2.385.578-4.206.828-5.357 1.954-.816-1.603 2.636-1.948 5.12-1.954zm9.95 1.793c-1.817 7.136-5.926 8.126-8.933 8.147-2.3.015-7.035-1.037-8.644-8.081a9.813 3.183 0 008.738 1.735 9.813 3.183 0 008.839-1.801zm-19.46 6.198c-1.838 3.554 4.3 6.507 10.8 6.441 6.302-.063 12.244-2.805 10.45-6.313.32.987-.43 4.794-10.478 4.97-8.944.156-11.394-3.593-10.771-5.098zm15.595 1.875c-.307.481-2.559 1.13-4.919 1.186-2.367.055-4.433-.662-5.084-1.17.347.743 2.584 1.754 5.063 1.728 2.488-.027 4.756-.977 4.94-1.744zm-24.236-6.09v1.836h-6.744v-8.4h6.588V15.4H193.8v1.416h3.732v1.776H193.8v1.536zm-10.742 0v1.836h-6.744v-8.4h6.588V15.4h-4.236v1.416h3.732v1.776h-3.732v1.536zM172.69 15.4v1.848h3.709v1.836h-3.708v2.88h-2.376v-8.4h6.588V15.4zm-10.39 0v1.848h3.708v1.836H162.3v2.88h-2.376v-8.4h6.588V15.4zm-10.968 6.732q-1.332 0-2.4-.564-1.056-.564-1.668-1.56-.6-.996-.6-2.244t.6-2.244q.612-.996 1.668-1.56 1.068-.564 2.4-.564t2.388.564q1.068.564 1.668 1.56.612.996.612 2.244t-.612 2.244q-.6.996-1.668 1.56-1.056.564-2.388.564zm0-1.968q.636 0 1.152-.3t.816-.84q.3-.552.3-1.26t-.3-1.248q-.3-.552-.816-.852t-1.152-.3-1.152.3-.816.852q-.3.54-.3 1.248t.3 1.26q.3.54.816.84t1.152.3zm-11.4 1.968q-1.32 0-2.376-.552-1.044-.564-1.644-1.56t-.6-2.256.6-2.256 1.644-1.548q1.056-.564 2.376-.564 1.152 0 2.076.408t1.536 1.176l-1.512 1.368q-.816-.984-1.98-.984-.684 0-1.224.3-.528.3-.828.852-.288.54-.288 1.248t.288 1.26q.3.54.828.84.54.3 1.224.3 1.164 0 1.98-.984l1.512 1.368q-.612.768-1.536 1.176t-2.076.408zm-33.836-4.616l1.963-4.043h1.64l-2.86 5.391v3.14h-1.487v-3.14l-2.866-5.39h1.647zM93.44 22.005v-8.531h2.924q1.447 0 2.203.58.756.58.756 1.728 0 .586-.317 1.055t-.926.726q.692.188 1.067.71.38.515.38 1.242 0 1.2-.773 1.845-.767.645-2.203.645zm1.482-3.85v2.666h1.647q.697 0 1.09-.346t.392-.96q0-1.33-1.36-1.36zm0-1.09h1.453q.692 0 1.078-.31.393-.317.393-.89 0-.634-.363-.915-.358-.281-1.12-.281h-1.44zm-17.594 4.94v-8.531h2.52q1.13 0 2.004.504.879.503 1.359 1.43.48.925.48 2.12v.428q0 1.213-.486 2.133-.48.92-1.377 1.418-.89.498-2.045.498zm1.483-7.336v6.152h.966q1.166 0 1.788-.726.626-.733.638-2.098v-.475q0-1.388-.603-2.12-.604-.733-1.752-.733zm-5.923 3.527h-3.504v2.625h4.095v1.184h-5.578v-8.531h5.537v1.195h-4.054v2.355h3.504zm-11.982.522h-1.653v3.287h-1.482v-8.531h3q1.477 0 2.28.662.802.662.802 1.916 0 .855-.416 1.435-.41.574-1.148.885l1.916 3.557v.076h-1.588zm-1.653-1.19h1.524q.75 0 1.172-.375.421-.38.421-1.037 0-.685-.392-1.06-.387-.375-1.16-.387h-1.565zm-5.923.668h-3.504v2.625h4.096v1.184h-5.578v-8.531h5.537v1.195h-4.055v2.355h3.504zm-11.495 1.7l1.313-6.423h1.47l-1.968 8.532h-1.418l-1.623-6.229-1.658 6.229h-1.424l-1.97-8.532h1.472l1.324 6.41 1.629-6.41h1.242zm-10.81-1.934q0 1.254-.433 2.203-.434.943-1.242 1.453-.803.504-1.852.504-1.037 0-1.852-.504-.808-.51-1.254-1.447-.439-.938-.445-2.162v-.48q0-1.249.44-2.204.445-.955 1.248-1.459.808-.51 1.851-.51t1.846.504q.808.498 1.248 1.442.44.937.445 2.185zm-1.482-.446q0-1.418-.54-2.173-.532-.756-1.517-.756-.96 0-1.506.756-.539.75-.55 2.127v.492q0 1.406.544 2.174.551.767 1.524.767.984 0 1.512-.75.533-.75.533-2.191zm-14.138 1.319v3.17h-1.482v-8.531h3.263q1.43 0 2.268.744.844.744.844 1.969 0 1.253-.827 1.95-.82.698-2.302.698zm0-1.19h1.781q.791 0 1.207-.369.416-.375.416-1.078 0-.691-.422-1.101-.422-.416-1.16-.428h-1.822z" fill="#fff"/></svg>